<svg width="25" height="25" viewBox="0 0 25 25" fill="none" xmlns="http://www.w3.org/2000/svg">
<path d="M12.2596 5.97051C11.4337 5.96835 10.6154 6.12889 9.8516 6.44296C9.08775 6.75702 8.39324 7.21846 7.80773 7.80093C6.62522 8.97728 5.95845 10.5752 5.9541 12.2432C5.94975 13.9111 6.60817 15.5125 7.78452 16.695C8.96088 17.8775 10.5588 18.5443 12.2268 18.5486C13.8947 18.553 15.4961 17.8946 16.6786 16.7182C17.8611 15.5419 18.5279 13.9439 18.5322 12.276C18.5366 10.608 17.8782 9.00664 16.7018 7.82413C15.5255 6.64163 13.9275 5.97486 12.2596 5.97051ZM12.2268 8.17988C12.7625 8.17773 13.2934 8.28112 13.7892 8.48415C14.285 8.68718 14.736 8.98588 15.1163 9.36319C15.4967 9.74051 15.799 10.189 16.006 10.6832C16.213 11.1773 16.3207 11.7074 16.3229 12.2432C16.325 12.7789 16.2216 13.3098 16.0186 13.8056C15.8155 14.3014 15.5169 14.7524 15.1395 15.1327C14.7622 15.5131 14.3137 15.8154 13.8196 16.0224C13.3254 16.2294 12.7953 16.3371 12.2596 16.3393C11.7238 16.3414 11.1929 16.238 10.6971 16.035C10.2013 15.832 9.75035 15.5333 9.36999 15.1559C8.98963 14.7786 8.68732 14.3301 8.4803 13.836C8.27329 13.3418 8.16563 12.8117 8.16348 12.276C8.16132 11.7402 8.26471 11.2093 8.46775 10.7135C8.67078 10.2177 8.96948 9.76675 9.34679 9.3864C9.7241 9.00604 10.1726 8.70372 10.6668 8.49671C11.1609 8.28969 11.691 8.18204 12.2268 8.17988ZM17.3346 5.71348C17.3346 5.32477 17.489 4.95198 17.7638 4.67712C18.0387 4.40226 18.4115 4.24785 18.8002 4.24785C19.1889 4.24785 19.5617 4.40226 19.8365 4.67712C20.1114 4.95198 20.2658 5.32477 20.2658 5.71348C20.2658 6.10218 20.1114 6.47497 19.8365 6.74983C19.5617 7.02469 19.1889 7.1791 18.8002 7.1791C18.4115 7.1791 18.0387 7.02469 17.7638 6.74983C17.489 6.47497 17.3346 6.10218 17.3346 5.71348ZM24.4275 7.20098C24.3346 5.2377 23.8861 3.49863 22.4479 2.06582C21.015 0.633008 19.276 0.18457 17.3127 0.0861328C15.2893 -0.0287109 9.22441 -0.0287109 7.20098 0.0861328C5.24316 0.179102 3.5041 0.627539 2.06582 2.06035C0.627539 3.49316 0.18457 5.23223 0.0861328 7.19551C-0.0287109 9.21894 -0.0287109 15.2838 0.0861328 17.3072C0.179102 19.2705 0.627539 21.0096 2.06582 22.4424C3.5041 23.8752 5.2377 24.3236 7.20098 24.4221C9.22441 24.5369 15.2893 24.5369 17.3127 24.4221C19.276 24.3291 21.015 23.8807 22.4479 22.4424C23.8807 21.0096 24.3291 19.2705 24.4275 17.3072C24.5424 15.2838 24.5424 9.22441 24.4275 7.20098ZM21.8135 19.4783C21.3869 20.5502 20.5611 21.376 19.4838 21.808C17.8705 22.4478 14.0424 22.3002 12.2596 22.3002C10.4768 22.3002 6.64316 22.4424 5.03535 21.808C3.96348 21.3814 3.1377 20.5557 2.70566 19.4783C2.06582 17.865 2.21348 14.0369 2.21348 12.2541C2.21348 10.4713 2.07129 6.63769 2.70566 5.02988C3.13223 3.95801 3.95801 3.13223 5.03535 2.70019C6.64863 2.06035 10.4768 2.20801 12.2596 2.20801C14.0424 2.20801 17.876 2.06582 19.4838 2.70019C20.5557 3.12676 21.3814 3.95254 21.8135 5.02988C22.4533 6.64316 22.3057 10.4713 22.3057 12.2541C22.3057 14.0369 22.4533 17.8705 21.8135 19.4783Z" fill="white"/>
</svg>
