<svg width="25" height="25" viewBox="0 0 25 25" fill="none" xmlns="http://www.w3.org/2000/svg">
<path d="M22.75 0H1.74453C0.782031 0 0 0.792969 0 1.76641V22.7336C0 23.707 0.782031 24.5 1.74453 24.5H22.75C23.7125 24.5 24.5 23.707 24.5 22.7336V1.76641C24.5 0.792969 23.7125 0 22.75 0ZM7.40469 21H3.77344V9.30781H7.41016V21H7.40469ZM5.58906 3.5C6.14747 3.5 6.683 3.72183 7.07785 4.11668C7.47271 4.51153 7.69453 5.04706 7.69453 5.60547C7.69453 6.16387 7.47271 6.69941 7.07785 7.09426C6.683 7.48911 6.14747 7.71094 5.58906 7.71094C5.03066 7.71094 4.49512 7.48911 4.10027 7.09426C3.70542 6.69941 3.48359 6.16387 3.48359 5.60547C3.48359 5.04706 3.70542 4.51153 4.10027 4.11668C4.49512 3.72183 5.03066 3.5 5.58906 3.5ZM21.0164 21H17.3852V15.3125C17.3852 13.9562 17.3578 12.2117 15.4984 12.2117C13.6062 12.2117 13.3164 13.6883 13.3164 15.2141V21H9.68516V9.30781H13.1687V10.9047H13.218C13.7047 9.98594 14.8914 9.01797 16.6578 9.01797C20.3328 9.01797 21.0164 11.4406 21.0164 14.5906V21Z" fill="white"/>
</svg>
