<svg width="18" height="17" viewBox="0 0 18 17" fill="none" xmlns="http://www.w3.org/2000/svg">
<path d="M7.5 5C7.5 4.75277 7.57331 4.5111 7.71066 4.30554C7.84801 4.09998 8.04324 3.93976 8.27165 3.84515C8.50005 3.75054 8.75139 3.72579 8.99386 3.77402C9.23634 3.82225 9.45907 3.9413 9.63388 4.11612C9.8087 4.29093 9.92775 4.51366 9.97598 4.75614C10.0242 4.99861 9.99946 5.24995 9.90485 5.47835C9.81024 5.70676 9.65002 5.90199 9.44446 6.03934C9.2389 6.17669 8.99723 6.25 8.75 6.25C8.41848 6.25 8.10054 6.1183 7.86612 5.88388C7.6317 5.64946 7.5 5.33152 7.5 5ZM3.75 5C3.75 3.67392 4.27678 2.40215 5.21447 1.46447C6.15215 0.526784 7.42392 0 8.75 0C10.0761 0 11.3479 0.526784 12.2855 1.46447C13.2232 2.40215 13.75 3.67392 13.75 5C13.75 9.68359 9.25156 12.3078 9.0625 12.418C8.96805 12.472 8.86114 12.5004 8.75234 12.5004C8.64355 12.5004 8.53664 12.472 8.44219 12.418C8.24844 12.3078 3.75 9.6875 3.75 5ZM5 5C5 8.29688 7.8 10.4852 8.75 11.1328C9.69922 10.4859 12.5 8.29688 12.5 5C12.5 4.00544 12.1049 3.05161 11.4017 2.34835C10.6984 1.64509 9.74456 1.25 8.75 1.25C7.75544 1.25 6.80161 1.64509 6.09835 2.34835C5.39509 3.05161 5 4.00544 5 5ZM14.5914 10.2836C14.4376 10.2328 14.27 10.2437 14.1241 10.314C13.9781 10.3843 13.8652 10.5085 13.8091 10.6605C13.7529 10.8125 13.758 10.9803 13.8232 11.1286C13.8884 11.2769 14.0087 11.3941 14.1586 11.4555C15.4484 11.9328 16.25 12.5719 16.25 13.125C16.25 14.1687 13.3969 15.625 8.75 15.625C4.10313 15.625 1.25 14.1687 1.25 13.125C1.25 12.5719 2.05156 11.9328 3.34141 11.4563C3.49134 11.3949 3.61158 11.2777 3.67679 11.1294C3.74199 10.9811 3.74707 10.8133 3.69094 10.6613C3.63481 10.5093 3.52187 10.3851 3.37592 10.3148C3.22997 10.2445 3.06242 10.2336 2.90859 10.2844C1.03281 10.9758 0 11.9852 0 13.125C0 15.5609 4.50859 16.875 8.75 16.875C12.9914 16.875 17.5 15.5609 17.5 13.125C17.5 11.9852 16.4672 10.9758 14.5914 10.2836Z" fill="white"/>
</svg>
